PathFileType	4	(X/Y/Z)	c:/Users/goper/Files/vsCode/490R/osim_files/A02/A02_Slow_03.trc
DataRate	CameraRate	NumFrames	NumMarkers	Units                	OrigDataRate	OrigDataStartFrame	OrigNumFrames
250.00	250.00	4	36	mm	250.0	1601	3200
                Frame#	Time	Mobility_markerset:LPSIS			Mobility_markerset:LASIS			Mobility_markerset:LTH1			Mobility_markerset:LTH2			Mobility_markerset:LTH3			Mobility_markerset:LTH4			Mobility_markerset:LLFE			Mobility_markerset:LMFE			Mobility_markerset:LSH1			Mobility_markerset:LSH2			Mobility_markerset:LSH3			Mobility_markerset:LSH4			Mobility_markerset:LLMAL			Mobility_markerset:LMMAL			Mobility_markerset:LCAL			Mobility_markerset:LMTP5			Mobility_markerset:LTOE			Mobility_markerset:LMTP1			Mobility_markerset:RPSIS			Mobility_markerset:RASIS			Mobility_markerset:RTH1			Mobility_markerset:RTH2			Mobility_markerset:RTH3			Mobility_markerset:RTH4			Mobility_markerset:RLFE			Mobility_markerset:RMFE			Mobility_markerset:RSH1			Mobility_markerset:RSH2			Mobility_markerset:RSH3			Mobility_markerset:RSH4			Mobility_markerset:RLMAL			Mobility_markerset:RMMAL			Mobility_markerset:RCAL			Mobility_markerset:RMTP1			Mobility_markerset:RTOE			Mobility_markerset:RMTP5		
		X1	Y1	Z1	X2	Y2	Z2	X3	Y3	Z3	X4	Y4	Z4	X5	Y5	Z5	X6	Y6	Z6	X7	Y7	Z7	X8	Y8	Z8	X9	Y9	Z9	X10	Y10	Z10	X11	Y11	Z11	X12	Y12	Z12	X13	Y13	Z13	X14	Y14	Z14	X15	Y15	Z15	X16	Y16	Z16	X17	Y17	Z17	X18	Y18	Z18	X19	Y19	Z19	X20	Y20	Z20	X21	Y21	Z21	X22	Y22	Z22	X23	Y23	Z23	X24	Y24	Z24	X25	Y25	Z25	X26	Y26	Z26	X27	Y27	Z27	X28	Y28	Z28	X29	Y29	Z29	X30	Y30	Z30	X31	Y31	Z31	X32	Y32	Z32	X33	Y33	Z33	X34	Y34	Z34	X35	Y35	Z35	X36	Y36	Z36

1601	6.40000	472.84009	980.33667	255.16753	335.54904	942.09418	349.48227	432.59912	685.64740	356.11057	420.23706	640.32568	350.79355	376.64371	692.29376	382.12735	373.55002	648.41162	372.01230	364.12924	473.93259	321.88541	327.60013	457.98105	209.93898	446.04568	411.23346	303.78354	457.84555	367.78629	307.11578	389.78003	391.43036	320.06924	408.36365	350.76627	320.89517	481.54684	120.10368	260.10742	462.01404	125.63007	179.77785	548.91901	115.17744	210.30215	406.61801	41.96395	281.70355	349.00125	51.39827	219.81966	387.43643	33.74491	171.78079	459.16003	993.56445	155.40601	300.51099	965.37634	106.18195	274.94540	633.33801	76.45832	256.86520	594.24359	74.66517	216.59552	653.34705	78.57084	207.08269	611.28424	74.77285	206.71707	491.96872	60.72379	186.34099	493.82501	193.93280	169.52168	309.04474	73.57850	153.46872	265.76221	81.61031	111.99904	325.55164	70.87383	102.81667	279.33920	76.06911	0.00000	0.00000	0.00000	100.82265	112.42027	158.91415	153.04688	72.17850	118.48206	-30.32595	115.17036	150.78621	-45.91047	134.26353	116.10277	-20.49065	114.19775	58.99525
1602	6.40400	469.28641	979.62762	254.81197	332.17142	941.29071	349.34445	429.62012	685.04639	356.16275	417.38412	639.67163	350.79608	373.68048	691.57996	382.06409	370.48187	647.57080	371.86371	361.71396	473.21097	321.83472	325.43832	457.07611	209.81955	443.93936	410.91370	303.84427	456.04608	367.56143	307.20062	387.75885	390.79196	319.95590	406.53232	350.21762	320.83972	481.34711	120.09370	259.76740	461.92792	125.62227	179.54843	548.89856	115.19672	210.13701	406.62769	42.02954	281.71036	348.99924	51.37197	219.80534	388.29190	34.50825	170.81940	455.51489	992.85150	155.08138	296.78879	964.33002	105.93401	270.13565	631.90723	77.01936	251.80240	592.99976	75.21473	211.98627	652.43610	78.74229	202.09888	610.41101	75.10297	200.93782	491.09958	61.23040	179.70551	493.23724	194.40959	161.32822	308.61108	74.33665	145.23640	265.82718	82.40266	104.08730	325.87204	71.32432	94.26436	279.76465	76.59410	0.00000	0.00000	0.00000	89.70760	113.06209	159.75732	142.26239	72.76894	119.36369	-41.51501	117.41020	150.92441	-56.68136	136.69623	116.23183	-31.26020	116.32237	59.32560
1603	6.40800	465.77637	979.01611	254.47366	328.70508	940.48956	349.15439	426.65018	684.39642	356.15363	414.48492	639.00226	350.73999	370.71887	690.84796	381.95905	367.57001	646.81500	371.78009	359.21677	472.37283	321.75323	323.33447	456.19711	209.69028	441.80478	410.57092	303.92178	454.10025	367.30624	307.26315	385.80777	390.09302	319.75568	404.73935	349.70010	320.77576	481.09097	120.07941	259.61731	461.87134	125.68531	179.21213	548.87073	115.23401	210.01506	406.17911	41.81258	281.67963	349.00241	51.34380	219.77156	387.40421	33.55170	171.66753	451.84671	992.05017	154.74335	0.00000	0.00000	0.00000	265.40338	630.44080	77.60144	246.74327	591.77051	75.81647	207.74734	651.52808	78.88609	197.13173	609.45880	75.55750	195.43271	490.30487	61.61621	173.17506	492.88742	195.05289	153.09355	308.21643	75.14413	135.92049	265.55518	83.31959	96.15031	326.19495	71.76398	85.64526	280.18839	77.09074	0.00000	0.00000	0.00000	76.39299	112.98472	159.39391	130.91472	72.71089	120.53375	-52.61692	119.67676	150.97289	-67.27760	139.13478	116.26177	-41.60108	117.98172	59.76408
1604	6.41200	462.16260	978.25067	254.11455	325.28616	939.71246	349.06052	423.54639	683.70428	356.22321	411.56683	638.33008	350.78403	367.57178	690.14569	381.86594	364.59549	646.11224	371.65793	356.69299	471.59262	321.68686	321.22641	455.37466	209.51231	439.65109	410.26944	304.00342	452.19519	367.03168	307.32272	383.58228	389.50055	319.75842	402.84375	349.13159	320.65390	481.03354	120.24807	259.55444	461.75186	125.63156	178.91805	548.85168	115.27152	209.81920	406.18161	41.87660	281.68268	349.00269	51.33348	219.75772	387.40802	33.49010	171.58743	448.23740	991.31464	154.38707	289.46439	962.07336	105.41900	260.65775	628.88373	78.29488	240.65387	589.48981	76.99521	202.75917	650.38647	79.50849	192.22160	608.53772	75.86861	188.80670	489.14597	62.63649	166.76753	492.51553	195.30367	144.94127	307.78976	75.95557	127.67474	265.49896	83.86769	88.22085	326.39523	72.24313	77.13470	280.62799	77.63798	0.00000	0.00000	0.00000	65.45795	113.39045	160.02364	119.73150	72.57118	121.61308	-63.18314	121.90881	151.20320	-77.62924	141.45911	116.28375	-51.95096	120.27354	59.73889
